<?xml version="1.0" encoding="UTF-8"?>
<svg width="179px" height="40px" viewBox="0 0 179 40" version="1.1" xmlns="http://www.w3.org/2000/svg" xmlns:xlink="http://www.w3.org/1999/xlink">
    <!-- Generator: sketchtool 63 (101010) - https://sketch.com -->
    <title>EC12E4D6-E5F0-4706-AD8A-738338DE5472@2x</title>
    <desc>Created with sketchtool.</desc>
    <defs>
        <linearGradient x1="4.36436074%" y1="-0.54328142%" x2="66.316552%" y2="68.0731619%" id="linearGradient-1">
            <stop stop-color="#FF964D" offset="0%"></stop>
            <stop stop-color="#FF6F5E" offset="100%"></stop>
        </linearGradient>
    </defs>
    <g id="Symbols" stroke="none" stroke-width="1" fill="none" fill-rule="evenodd">
        <g id="Logo/Hor_Preta" fill-rule="nonzero">
            <g id="Hor_Preta" transform="translate(0.000000, 0.000000)">
                <path d="M26.1620784,38.7622745 L12.6352941,38.7622745 C5.67069756,38.7622745 0.0193461015,33.1266481 0,26.1620784 L0,12.6352941 C0,5.65701387 5.65701387,0 12.6352941,0 L26.1620784,0 C33.1266481,0.0193461015 38.7622745,5.67069756 38.7622745,12.6352941 L38.7622745,26.1620784 C38.7429931,33.1129723 33.1129723,38.7429931 26.1620784,38.7622745 Z" id="Path" fill="url(#linearGradient-1)"></path>
                <path d="M7.63031373,26.7447059 L12.0175686,31.1319608 C13.4435978,32.5544705 15.5288253,33.0919003 17.4647843,32.5358824 C18.4447265,32.9165827 19.5520454,32.7612865 20.3894596,32.1257105 C21.2268739,31.4901346 21.6743165,30.4654067 21.5712549,29.4191765 L29.391098,21.6063529 C30.426094,21.7015306 31.4379647,21.2612513 32.0738045,20.4390693 C32.7096442,19.6168872 32.8812844,18.5268102 32.5288627,17.5490196 C33.1035521,15.5936894 32.5651851,13.4805989 31.1249412,12.0386275 L26.7447059,7.63031373 C25.3027344,6.19006983 23.1896439,5.65170283 21.2343137,6.22639216 C20.2537988,5.85621564 19.1515433,6.01986915 18.3208751,6.65895473 C17.4902068,7.29804031 17.0494642,8.32151263 17.1559216,9.36415686 L9.34309804,17.184 C8.29332174,17.0800246 7.26494374,17.5290779 6.6276508,18.3697317 C5.99035786,19.2103856 5.83573715,20.3218272 6.21937255,21.3045098 C5.6663409,23.2395718 6.20651785,25.3223436 7.63031373,26.7447059 Z M16.5241569,26.6043137 L12.1579608,22.2381176 C10.587178,20.6628007 10.587178,18.113513 12.1579608,16.5381961 L16.5241569,12.1790196 C18.0994738,10.6082368 20.6487615,10.6082368 22.2240784,12.1790196 L26.5832549,16.5381961 C28.1540377,18.113513 28.1540377,20.6628007 26.5832549,22.2381176 L22.2240784,26.6043137 C20.6487615,28.1750965 18.0994738,28.1750965 16.5241569,26.6043137 Z M30.0790196,18.812549 L29.2436863,19.654902 C29.3196479,18.1026273 28.7357452,16.5905999 27.6361961,15.4922745 L23.2770196,11.133098 C22.1786943,10.0335489 20.6666668,9.44964626 19.1143922,9.52560784 L19.9497255,8.69027451 C20.7107893,7.92812102 21.7436676,7.49985593 22.8207451,7.49985593 C23.8978226,7.49985593 24.9307009,7.92812102 25.6917647,8.69027451 L30.0790196,13.0775294 C31.6615637,14.6616825 31.6615637,17.2283959 30.0790196,18.812549 Z M8.6832549,25.6917647 C7.92110141,24.9307009 7.49283632,23.8978226 7.49283632,22.8207451 C7.49283632,21.7436676 7.92110141,20.7107893 8.6832549,19.9497255 L9.49752941,19.135451 C9.42357772,20.6853258 10.0073262,22.1944049 11.1050196,23.2910588 L15.4431373,27.6572549 C16.553124,28.7698955 18.0858532,29.3548871 19.654902,29.2647451 L18.812549,30.0790196 C18.0514852,30.8411731 17.018607,31.2694382 15.9415294,31.2694382 C14.8644519,31.2694382 13.8315736,30.8411731 13.0705098,30.0790196 L8.6832549,25.6917647 Z" id="Shape" fill="#FFFFFF"></path>
                <path d="M64.7207843,26.1480392 C63.5075156,26.9471888 62.0809249,27.3607288 60.6283529,27.3343529 C57.7854118,27.3343529 55.5882745,26.4849804 54.093098,24.8072941 C52.620375,23.0418732 51.8682898,20.7856176 51.9872157,18.4896471 C51.8782199,16.2185245 52.6302807,13.9899176 54.093098,12.2492157 C54.799231,11.4225746 55.6952561,10.7794599 56.7043922,10.3749804 C57.9510562,9.86813062 59.2903343,9.6289738 60.6353725,9.67301961 C63.5699061,9.60168087 66.2490008,11.3339022 67.3882353,14.0392157 L70.3715686,14.0392157 C70.3715686,14.0392157 70.3715686,14.0041176 70.3715686,13.9760392 C69.6785822,11.9480158 68.3769484,10.1830886 66.6441569,8.92192157 C64.7336514,7.57759057 62.4445556,6.87684699 60.108902,6.92133333 C57.0521691,6.79349857 54.0985398,8.03984257 52.0574118,10.3188235 C50.0713081,12.5805491 49.0264142,15.5168015 49.1372549,18.5247451 C49.0173543,21.5245197 50.0467287,24.4569812 52.0152941,26.7236471 C54.0537923,29.0013988 57.0058588,30.2455943 60.0597647,30.1141176 C62.3942336,30.1577325 64.6823732,29.4597394 66.5950196,28.120549 C68.3148907,26.8933211 69.6102304,25.1612949 70.3013725,23.1647059 L67.2899608,23.1647059 C66.7257153,24.3774619 65.8364131,25.4101216 64.7207843,26.1480392 Z" id="Path" fill="#000000"></path>
                <path d="M144.919804,7.10384314 C144.919804,7.10384314 144.919804,7.05470588 144.863647,6.99854902 L144.863647,6.99854902 C144.81451,6.94239216 144.786431,6.94239216 144.758353,6.94239216 L142.203216,6.94239216 C142.203216,6.94239216 142.203216,6.94239216 142.13302,6.9845098 C142.09342,7.01385077 142.072106,7.06180774 142.076863,7.11086275 L142.076863,19.8725098 C142.187291,21.922628 141.421777,23.9231716 139.97098,25.3758824 L139.97098,25.3758824 C138.668051,26.5017789 136.98892,27.0957401 135.267843,27.0395294 C133.544589,27.1131064 131.861149,26.5082777 130.578745,25.3548235 C129.174824,24.0702353 128.472863,22.2170588 128.472863,19.851451 L128.472863,7.10384314 C128.472863,7.10384314 128.472863,7.05470588 128.409686,6.99152941 C128.34651,6.92835294 128.332471,6.93537255 128.304392,6.93537255 L125.784353,6.93537255 C125.784353,6.93537255 125.735216,6.93537255 125.679059,6.99854902 C125.622902,7.06172549 125.622902,7.07576471 125.622902,7.10384314 L125.622902,19.8023137 C125.498934,22.4991012 126.474122,25.1308422 128.325451,27.0956863 C132.23281,30.7694432 138.323935,30.7694432 142.231294,27.0956863 C144.083631,25.134302 145.059138,22.5042324 144.933843,19.8093333 L144.919804,7.10384314 Z" id="Path" fill="#000000"></path>
                <path d="M175.756941,29.5736078 L178.298039,29.5736078 C178.333137,29.5736078 178.354196,29.5736078 178.410353,29.517451 C178.46651,29.4612941 178.46651,29.4402353 178.46651,29.4121569 L178.46651,7.10384314 C178.46651,7.10384314 178.46651,7.05470588 178.410353,6.99854902 C178.354196,6.94239216 178.333137,6.93537255 178.298039,6.93537255 L175.778,6.93537255 C175.778,6.93537255 175.728863,6.93537255 175.672706,6.99854902 C175.616549,7.06172549 175.616549,7.07576471 175.616549,7.10384314 L175.616549,29.4121569 C175.616549,29.4121569 175.616549,29.4612941 175.672706,29.517451 C175.728863,29.5736078 175.728863,29.5736078 175.756941,29.5736078 Z" id="Path" fill="#000000"></path>
                <path d="M96.0563137,29.3770588 L95.979098,29.2366667 L94.5751765,25.8602353 L91.451451,25.8602353 L92.9676863,29.4823529 C92.9676863,29.5385098 93.0027843,29.5385098 93.0098039,29.5455294 C93.0441975,29.5554746 93.0807045,29.5554746 93.115098,29.5455294 L95.9229412,29.5455294 C95.9931373,29.5455294 96.0071765,29.5455294 96.0352549,29.5104314 C96.0711915,29.4782896 96.0916352,29.4322913 96.0914136,29.3840784 C96.0914136,29.3840784 96.0703529,29.3981176 96.0563137,29.3770588 Z" id="Path" fill="#000000"></path>
                <path d="M168.042392,8.95 C166.475597,7.55045101 164.419436,6.82637942 162.321412,6.93537255 L152.276353,6.93537255 C152.276353,6.93537255 152.227216,6.93537255 152.171059,6.99854902 C152.114902,7.06172549 152.114902,7.07576471 152.114902,7.10384314 L152.114902,16.145098 L154.964863,16.145098 L154.964863,9.65196078 L162.152941,9.65196078 C163.548118,9.55861463 164.925667,10.0060665 165.999686,10.901451 C166.907414,11.7874072 167.381923,13.0262604 167.298314,14.2919216 C167.365562,15.560714 166.899896,16.7999446 166.013725,17.7104706 C165.171373,18.5177255 163.872745,18.9529412 162.152941,18.9529412 L152.114902,18.9529412 L152.114902,29.4121569 C152.114902,29.4121569 152.114902,29.4612941 152.171059,29.517451 C152.227216,29.5736078 152.248275,29.5736078 152.276353,29.5736078 L154.796392,29.5736078 C154.796392,29.5736078 154.845529,29.5736078 154.908706,29.517451 C154.971882,29.4612941 154.964863,29.4402353 154.964863,29.4121569 L154.964863,21.6133725 L162.321412,21.6133725 C164.764235,21.6133725 166.638471,20.9675686 168.042392,19.6408627 C169.49058,18.2501497 170.259676,16.296646 170.148275,14.2919216 C170.252887,12.2903611 169.484703,10.3417352 168.042392,8.95 L168.042392,8.95 Z" id="Path" fill="#000000"></path>
                <path d="M119.951059,29.320902 L114.335373,20.6727451 L115.360235,20.1743529 C115.486588,20.1111765 115.605922,20.0620392 115.725255,20.012902 L115.893725,19.9427059 L115.956902,19.9427059 C117.06477,19.5047934 118.002425,18.7221834 118.631373,17.7104706 C119.268305,16.6121969 119.58446,15.3573073 119.543922,14.0883529 C119.649563,12.1195535 118.878572,10.204924 117.438039,8.8587451 C115.899663,7.51951473 113.901385,6.82993254 111.864471,6.93537255 L101.145529,6.93537255 C101.145529,6.93537255 101.096392,6.93537255 101.040235,6.99854902 C100.984078,7.06172549 100.977059,7.07576471 100.977059,7.10384314 L100.977059,15.5273725 L103.82702,15.5273725 L103.82702,9.65196078 L111.548588,9.65196078 C112.892589,9.59088557 114.215038,10.0060152 115.28302,10.8242353 L115.28302,10.8242353 C116.216831,11.6376989 116.732852,12.8297082 116.686941,14.0672941 C116.70797,14.7733825 116.551065,15.4734188 116.230667,16.1029804 L116.195569,16.1591373 C115.311098,17.5630588 113.696588,18.2650196 111.415216,18.2650196 L100.977059,18.2650196 L100.977059,29.4121569 C100.977059,29.4121569 100.977059,29.4612941 101.033216,29.517451 C101.089373,29.5736078 101.117451,29.5736078 101.145529,29.5736078 L103.665569,29.5736078 C103.665569,29.5736078 103.714706,29.5736078 103.770863,29.517451 C103.82702,29.4612941 103.82702,29.4402353 103.82702,29.4121569 L103.82702,20.9886275 L111.34502,20.9886275 L116.679922,29.4823529 C116.692827,29.5038477 116.709467,29.5228651 116.729059,29.5385098 L119.894902,29.5385098 C119.918631,29.5168164 119.937732,29.4905524 119.951059,29.4612941 C120.035294,29.3981176 119.986157,29.3840784 119.951059,29.320902 Z" id="Path" fill="#000000"></path>
                <path d="M86.5728235,7.01960784 C86.5728235,6.96345098 86.5728235,6.95643137 86.5728235,6.95643137 C86.538627,6.94518153 86.501726,6.94518153 86.4675294,6.95643137 L83.3087059,6.95643137 C83.2748047,6.94346892 83.237313,6.94346892 83.2034118,6.95643137 C83.2034118,6.95643137 83.2034118,6.95643137 83.2034118,6.99854902 L78.6196078,17.6753725 L81.7082353,17.6753725 L84.8600392,10.1222745 L89.1490196,20.441098 L77.4403137,20.441098 L73.6216471,29.4332157 L73.6848235,29.517451 C73.6848235,29.552549 73.6848235,29.5665882 73.7269412,29.5665882 L76.5839216,29.5665882 C76.6181181,29.5778381 76.6550191,29.5778381 76.6892157,29.5665882 C76.6892157,29.5665882 76.6892157,29.5665882 76.6892157,29.517451 L79.3707059,23.108549 L93.3607843,23.108549 L86.5728235,7.01960784 Z" id="Path" fill="#000000"></path>
            </g>
        </g>
    </g>
</svg>